<svg xmlns="http://www.w3.org/2000/svg" width="16" height="16" fill="currentColor" viewBox="0 0 24 24">
  <path d="M3.523 6.542c0 1.133.001 2.075-.24 2.904-.256.885-.765 1.59-1.635 2.348-.088.076-.11.152-.11.205 0 .054.022.13.11.207.87.759 1.38 1.463 1.636 2.348.24.83.24 1.771.24 2.903 0 .699.684 1.433 1.752 1.433a.75.75 0 0 1 0 1.5c-1.697 0-3.253-1.22-3.253-2.933 0-1.198-.012-1.903-.18-2.485-.153-.526-.453-1-1.181-1.635a1.746 1.746 0 0 1 0-2.674c.728-.635 1.028-1.109 1.18-1.635.17-.582.181-1.287.181-2.486 0-1.712 1.556-2.932 3.253-2.932a.75.75 0 1 1 0 1.5c-1.067 0-1.753.734-1.753 1.432Z" opacity=".4"/>
  <path d="M7.51 6.542c0 1.133.002 2.075-.238 2.904-.257.885-.767 1.59-1.636 2.348-.088.076-.11.152-.11.205 0 .054.022.13.11.207.87.759 1.379 1.463 1.636 2.348.24.83.239 1.771.239 2.903 0 .699.685 1.433 1.753 1.433a.75.75 0 0 1 0 1.5c-1.697 0-3.253-1.22-3.253-2.933 0-1.198-.012-1.903-.18-2.485-.154-.526-.453-1-1.181-1.635a1.746 1.746 0 0 1 0-2.674c.728-.635 1.027-1.109 1.18-1.635.17-.582.18-1.287.18-2.486C6.012 4.83 7.568 3.61 9.265 3.61a.75.75 0 1 1 0 1.5c-1.068 0-1.753.734-1.753 1.432Z" opacity=".4"/>
  <circle cx="10.132" cy="12" r="1.118"/>
  <circle cx="13.868" cy="12" r="1.118"/>
  <path d="M16.49 17.457c0-1.132-.002-2.074.238-2.903.257-.885.766-1.59 1.636-2.348.088-.076.11-.152.11-.205 0-.054-.022-.13-.11-.207-.87-.759-1.379-1.463-1.636-2.348-.24-.83-.239-1.771-.239-2.904 0-.698-.685-1.432-1.753-1.432a.75.75 0 0 1 0-1.5c1.697 0 3.253 1.22 3.253 2.932 0 1.199.012 1.904.18 2.486.154.526.453 1 1.181 1.635.832.725.832 1.95 0 2.674-.728.635-1.027 1.109-1.18 1.635-.17.582-.18 1.287-.18 2.486-.001 1.712-1.557 2.932-3.254 2.932a.75.75 0 0 1 0-1.5c1.068 0 1.753-.734 1.753-1.433Z" opacity=".4"/>
  <path d="M20.477 17.457c0-1.132-.002-2.074.24-2.903.256-.885.765-1.59 1.635-2.348.088-.076.11-.152.11-.205 0-.054-.022-.13-.11-.207-.87-.759-1.38-1.463-1.636-2.348-.24-.83-.24-1.771-.24-2.904 0-.698-.684-1.432-1.752-1.432a.75.75 0 0 1 0-1.5c1.697 0 3.253 1.22 3.253 2.932 0 1.199.012 1.904.18 2.486.153.526.453 1 1.181 1.635.831.725.831 1.95 0 2.674-.728.635-1.028 1.109-1.18 1.635-.17.582-.181 1.287-.181 2.486 0 1.712-1.556 2.932-3.253 2.932a.75.75 0 0 1 0-1.5c1.067 0 1.753-.734 1.753-1.433Z" opacity=".4"/>
</svg>
